# xmcd
#
# Track frame offsets: 
#        150
#        31421
#        45873
#        68427
#        88265
#        107187
#        125120
#        141909
#        168156
#        183314
#        206798
#        223015
#
# Disc length: 3223 seconds
#
# Revision: 0
# Processed by: cddbd v1.4PL0 Copyright (c) Steve Scherf et al.
# Submitted via: ExactAudioCopy v0.90b4
#
DISCID=ad0c950c
DTITLE=Richard Buckner - Live At The Cactus 2000.09.12 disc 2
DYEAR=2000
DGENRE=Alt. Country
TTITLE0=RB 2000.09.12 d2t01
TTITLE1=RB 2000.09.12 d2t02
TTITLE2=RB 2000.09.12 d2t03
TTITLE3=RB 2000.09.12 d2t04
TTITLE4=RB 2000.09.12 d2t05
TTITLE5=RB 2000.09.12 d2t06
TTITLE6=RB 2000.09.12 d2t07
TTITLE7=RB 2000.09.12 d2t08
TTITLE8=RB 2000.09.12 d2t09
TTITLE9=RB 2000.09.12 d2t10
TTITLE10=RB 2000.09.12 d2t11
TTITLE11=RB 2000.09.12 d2t12
EXTD=
EXTT0=
EXTT1=
EXTT2=
EXTT3=
EXTT4=
EXTT5=
EXTT6=
EXTT7=
EXTT8=
EXTT9=
EXTT10=
EXTT11=
PLAYORDER=
